<?xml version="1.0" encoding="UTF-8"?>
<svg version="1.1" viewBox="0 0 1600 1600" width="400" height="400" xmlns="http://www.w3.org/2000/svg">
<path transform="translate(0)" d="m0 0h1600v1600h-1600z" fill="#050505"/>
<path transform="translate(1029,579)" d="m0 0h2l4 11 2 17v12l1 6v3h2l1 7-2 4v6l-2 6-3 11-4 10-3 15-3 6-3-1-2 10-2 7 3 5-1 2 1 4h-8v-3h-2v-3h-2l2 11 3 1 1 3h-3l-3 6-4 1v3l-5 1v-2l2-2-4-2-4 2-7 1 2 4-2 3-3-1v-2h-2l-1 4-2 1v10h-3l3 3v5l-2 1 1 2-5 2-4-2 1 8h-2l-2 9-3 1 3 4v4l-3 1-1-1-1 4-5 1v5l2 3-3 1v2l-3 1-3 7-7 1-1-6-4 1h-5l-1-1-1-8-3-2-3-5-2-1-4-4-1-4-1-3-9 1h-7l-4-3-6 2h-4v-2l-10-2-9-3v-3h-5v-2h-2l-3-5-6-4-1-6 8-4 8-6 2-6-3-1v-2h-8l-3-1-1 2-9 1-5-2 1 2 6 2 8 1 1 3-1 2-8 1-4-1v-2l-3-1-6 1-4-2v2l-7-1-2 2v-2h-2v3h-2v2l2 1h-5v-2l-3 2 6 2 5 6-1 2h-2v2h3v2l3 1-3 1-2-1v2h3v2l-4 1-4-4-1 2-5-1-7-3v-2l-5-1-3-1-1 4-7-1v2h-2l-1 5-4-1v-2l-4 2-3 6-2 3h-4v2h3v5l4 1h1l1-2h4l1 4-1 2 3-1 2 5h6l2 2-1 4-4-2v2l8 1 1 1h2v-4h5l-2 4-2-1v3h-2v2l2 1-6 2-5 1 1 2h13l3-2h3l1 3 3 6 7 1 3 1h14l9 2 4 3-3 1 1 3-1 5-2-1 1 4-1 5-6 1v2l-7 3-1 4-3 1v3h2l1 4-15 3-9 2-5 1-1-1h-8l-4 1-4 5h-2l-1-3-2-1-1 4h3v2h4l2-1-1 4-2 4 4-2v4h-2l-1 3-2 1 1 6-1 2 2 1-1 2 1 2 2-7 1 4 5-2-1 4h2l-1 8-3-1v6h-2l1 6h2v2h-2l-1 2-1 10-2-1-2 15-2-4-1-1v8l-2-1v-6l2-5h2v-13l-1 11-3-3-2 6-1-4-2 3v11l-2-3-1-5-1-1-1 2h-2l-1-2v9l-2 1-1-2-1 2h-2l1-5v-3h-3v8h-4l-1-4 2-3h-3l1-4h-3l2 8-2 11-2 1-2-2v-7l2 1 1-4-3 1-1-1-4 1 1-9-4-5-1-1-1 3h-2l-1 8h-1l-1-8h-2l-2 4-1-4-7 2 1-7-2 2-1-2-2 4-3 4-2 3-2-5v-7l2 2 2-6-2-1 1-2-4 1-1-2-3 2-2-6-3 1v-3l-6 2-1-5-5-1-3 2-1-1-3 3h-2l-2 1 4-12h-4l-1-1-2 5-1-3 1-6 2-5-1 1-3-1-2 4-1-1-3 3-1-5 1-5h-2l-1 5-2 1 1-8h-2v2h-2l1-4 2-3v-4l-5 6-2 3-1-4 1-7 2-1 2-3v-2l1-7h-2l-1 3h-2v2h-2l-2 4 2-10-5 5 3-11-1-5-2 4-2-1 1-5-2-1 1-7h-2l-2-5-4 3 1-6-4 1-2 4-1-4-3 6h-1v-8l-1-2h-2l-1 5-2 2 2-9 2-5v-10l-3-3v2l-2-1 2-6-2 4-3 3-1-4h-4l-2 4-6 9-1-3 5-9 4-5-3-2v-5l-2 1v-3h2v-7l-2 1 2-5 1-5h-4l-1-5h-3l-1-4 1-2h3l1 3 1-5h-5v-2l-2-1 2-6h-6l-1-4v-7l-3-1v-6l2-3-4-1 1-2h-3v-2h-2l-1-6-3-1v-2l4-2v-4l-3 1-5-4 1-2h4l-2-2-3-1-2-3 7 1-1-3v-2l-2-6v-4l-3-1 1-5-3-1 1-2-5-1v-2h2v-3l-2-1-2-5 1-3-4 2-5-1 4-1v-4l-2-1 3-3v-8h-2v-3l-2-1 1-35-1-3 2-7 3-13-1-2 4 1 3 4v2h2l2 4 4 32 4 19 5 14 6 12 10 11 16 8 25 6 39 5 5 1h9v2h2l-1 3 11 1 6 2 7 1-1 3 3-2h6l2-6 5-2 2-4 13-13 4-6h2l3-9 12-24 7-25 2-5 2-8 5-5 5-3h17l5 4 5 10 6 21 1 7v4h2l3 9 2 1 3 8 2 5 4 3 1 4 3 3 1 2 4 4v2l6 2 6 5 6-1v-5h10l15 2 13 1h29l24-3 13-3 18-7 2-1 2 1v-2l3-1v4l1-5 2-1-2-1 4-3h2l2-5 4-11 7-23 3-23 2-23 3-12z" fill="#414141"/>
<path transform="translate(628,389)" d="m0 0 5 1 5 2h6l2-2 4 1 6 2 1 1h11l7 1 1 3h7l3 3 1-3h-2l1-2 6 3 2 3 10 2 6 2-2 4 8-3h7l5 1 7-1 3-1 9 1 4-1v2h11l1-1h15v2l8 2 1 2 12 4 3-3h2v-2l12 2 5 3 3 3 3 1-3-5 8 2h14l1-2 9 1 5 3 2-1v2h4l3 3 4 12 1 7-1 6 2 1 3 10v8l3 1 2 3 2 17-1 3-1 12-2 10-1 4h-2v5l-4 6h-3l-1 4-5 4-8 11-8 4-9 4-1 2h-2l-2 4-6 4h-16l-6-4v2l-6 2h-11l-6-2-14-1-17 1-6-2v-2l-11-1-9-2-9-3-5-1h-5l-9-3-5-2h-15l-11-1-1 1h4v2h2v2l-9 2h-4l1 4 12 3 1 2-5 1-47 2-35 3-6-2-1-3-3-1-2-4v-7l2-8h2l1-7 5-9h2l1-6 3-5v-6l3-3h2l-1-3 2-1 1-4 1-2-4-1 2-1 1-9h-2l-1-6 2-7v-6l1-2-9-3 2-6 3-1 1 3 2-2-4-4 3-1-4-7 5-2v-2h-3l1-6-3-1 4-2 3-1v-5h2l-1-2-3-2 7 1-1-3-3-3h2l-3-3v-2l5 1-2-2v-2l4-1 5-1-3-3-1-4 5 1-1-1-2-3 10-1 3 1v-3l-5-1 4-1 5 2z" fill="#C9C9C9"/>
<path transform="translate(726,338)" d="m0 0 5 2 5 1 1-2 4 1 1 4 7-1 1-2 5 5 3 6 2 1-1 6 5 2-1-4 4 2 2 4v2l5 1 4 4 5-1 2 3v10l-4-1-8-5-4 4h-2l5 6 1 6-7-2 3 4h4l2-2 2 3-1 3 6-3-1-3h3l2 2 4-2 2 3v3l7-2 2-1 7 1v2l2 1 1 2 6 1v-2l9 1 1 1 2-1v-2l9-3 1 4h2l1-4h2l1-2 4 4v2h2v2l5-2 1 3 14 1h12l4 2 1 6h5l4 2 3-1 6-1 4 4v2l7 1h9l5 1 1 3-3 1h3l3-6 2 1 3-1h3 3l5 1 4-1 4 1v2h3v-2h2l1-2 6-1 6 3 1 5 1 7-1 3 3 9-1 4 1 5-1 7-2 4 1 5v3l1 3-1 3 4 5 5 10 6 8 2 2 1 4 4 7 1 3 4 2 2 4v3h2l4 9 3 8-1 7-7 6-7 3h-16l-11-1-7-2 1-2h5v-2l2-1-2-1v-2l-5-1v-2l-4-1 4-1-1-3-9-3v-2l-4-1-2-2-10-1h-4l-9 3-12 3-15 4-7 2-2 2-9 3-10 4h-2v2l-5 1v2l-7 3-4 4h-3v2l-7 3-4 2h-3v2l-14 5-13 2-10 2h-13l-8-1-5-1-2 1h-8l-2-2-4-1v2l-7-2-6-2-4-2v-2l-7-2v-4l-2-1-3 1v-3h-9l-3-1v-2l-14-1-7-2-1 2-1-3-9-1-1 2h-8v4l11 3h5l1 2h-56v-1l30-1 4-1-16-4 3-1v-3l7-2h6v-2h-2v-2h-4l1-2 11 1h16l7 3 6 2h8l10 3 1 1 12 2 8 2 1 2 11 1 13-1 16 2 2 1h11l6-1v-2l5 2 1 1h16l6-4 2-3h2l1-3 16-7 9-12 5-4 1-3h3l6-15 2-10v-6l2-12-2-14-4-4-2-12-3-7v-8l-1-5-2-4-1-8-3-1v-2l-5-1h-3l-3-2-9-1v2h-15l-7-2 2 4-5-1-1-3-10-3-5-1-2-1v2l-4 1-1 3-12-4-1-3-9-1 1-3-10 1-5-1-1 2-11-1h-4l-11-1-1 1-9 1-7-1-11 2 1-3-7-3-8-1-3-4-5-2 1 1-1 4-1-3h-11l1-4h-18l-2-2-8-1h-2l-4 1h-5l-5-3-3 1-1 3h-4v3h-8l-4 1 3 2-1 2-4-1v3l3 1v2l-5 1-1 2-3-1v2l4 2 1 2-5-2-3-1v2l3 1-1 3 3 2v3h-4l1 3h-2v5l-6 3 2 1-1 6h3v2l-4 3 3 4v2l-2 2 4 4-3 1-2-2h-2l-1 5 8 4v10l-2 7v4h2v9l-1 1 2 1-1 7-2 1v2l-4 4v5l-4 8-1 3h-2l-2 6-3 6-1 4h-2v6l-1 2v7l2 4 4 4 7 1v2h-8l-7-5-2-5v-13l3-10 3-5 1-8h2l-1-7 2-4h-3l-1 5-5 6h-2l2-10 4-6h2v-6h2l1-7-5 1 1-3h3l2-13 1-10h-3l2 1v3l-5-2-3-3v-5-3h2l1-4-3-7 4-3h-2l-1-4 2-1 4 1-3-4v-4l-4-3 1-2 3-1 1-2-3-1 1-3 7-1-6-3-1-3 5 1h2l-2-3h8v-2l-5-2v-2h-6l-4-4 9 1 8 1-3-5 2-1 1-2 7 1 1-6h4v-4l-3-3h8l-2-4h9l10 1v-2l-3-1v-4h5l1-3-5-2-1 2-7-2-2-2 7-1 1-2 8 3 2-2 4 4 7 4 5 1h3v-2l5 1v-2l-7-1-1-3h2l-1-4 7 2 10 7v2h7l-1-6-2 3-10-5-3-3-1-6 5 2v-2h2l-3-4v-2h3v2h2l-1-3 4-2 5 1v2l3-1 4 1v-2l5 1v4l4 1v-2h-2l2-4h5l-3-4v-2l4 2 8 5-4 2 3 5-1 2-1 1v2h2l2 3 5 1 1-2 6 2-4-5 10 1v-2h2l-2-5 4-3 4 1 4 7-3-1-2 3h-2l1 3 4 1 4-1 1 7-7-1 4 5h-10l-4-3-2 1-1 2h-3l7 3v4h2l-2 5h7l7 2 1-2-5-1-4-2v-2h8 3l5-1 2 1v2h6l-3-5 3-1 1-3v2l5 2v-2h-2l-1-2-10-2-2-1v-2l3-3 3-1-4-2-1 2v-2l-3-1 3-3 6 2v-4l-5-2-4-2 3-1 1-1-11-9-2-1 5 5 1 2-5 1-5-1-7 1-1 3h-7l-6-3v-5l4 3v-5h2l1 5h3v-3h-2l1-7 2 2 5-1 2-1z" fill="#404040"/>
<path transform="translate(564,592)" d="m0 0 4 3v2h2l2 4 4 32 4 19 5 14 6 12 10 11 16 8 25 6 39 5 5 1h9v2h2l-1 3 11 1 6 2 7 1-1 3 3-2h6l2-6 5-2 2-4 13-13 4-6h2l3-9 12-24 7-25 4-10 5-5 4-3h13l5 4 3 7 1 21v22l1 4v8l3 7 2 9 1 20-2 5-3 7h-2l-1 5-4 5-1 4-8 4h-4v2l-6 3 3 2 9 2 4 3-5 2 2 2-14-1v-2l-13-1-5-1-2 4-7 3-3 5h-2l-1 4-3 4-2 4h-4l-1 2-2 1v-2l-3 1-2 2-1-2-3 4-2-1v3h-2l1 4h-2l-2-4-2-1-1 3-6 2-4-2h-3l-2 2-3-1-3 1-1-1-2 2h-3v3l-6 2-3 5h-3l-1 4v-2l-3 2-2 3-4 4-2 9h2v2h-2v6 2l1 4-3 5-2 6-2-2-4 4 1-5 3-10h-4l-1 6h-2v-5l-5 2-2 6-1-4 1-4h-2v-10l-2-1v3l-1 7-1-3-5-1-1-10-4 1 1-7-2-2-5 1-1 5-1-4 2-5 1-7-3 1h-2l-2 2 1-10-1-4-5 9-1-2 2-9-3-1 3-8 3-7h-1l-8 2-1 3-2-1 2-3h2l-1-4 3-5-5-1 1-3-3-1-2-1 1-4-2-1v2h-2l2-5h-7l2-5-2-4-4-1 2-1-1-8-5-1 3-1-1-3 1-3-5-2 2-3-3-8v-2h-2v-2l-5-5-2-4v-4h-2l-4-11-3-5-6-15-2-13-3-17v-10l3-28z" fill="#C9C9C9"/>
<path transform="translate(658,1326)" d="m0 0h2l2 17 1 5v6h-3l-1-7-2 5v10l-3 4-1 5h2v6l-1 2h-3v-2h-2v12h-3l-1 2h6l2 2-1 10h4l-1-3 2-5 3 1v2l3 1-2 3-1 6 2-1 2-13 1-8h20l11 2v2l5 2 1 6 9 3 1-2h2l2-5-2-1h5l8 20 4 12v5l3 1 2 5 4 4 4-4 13-2 2 45 4 41v5l-5-1-7-28-6-16 1-2 1 1-1-9-5-16-2-5h-2l1 7v43l-1 9-18-1-31-3-10-1-2-2-1-26 1-18v-13l2-2-1-3 1-3-6-6-1-10-5-3-1 9-3 1-2 5-5 1-2 11 6 2-1 9-3 12 4 1 1-10h4l1 13 1 2 4-27h2l1 7-1 26-3 2-1 3h-2l-2 4-2 1-2 7-4 5-4 1-53-3v-2h-25l-21-1-1-2 6-114h21l64 3-1-7v-14l2-12 2-7h2l1-7 3 1 1 6 3-7 1-9z" fill="#959595"/>
<path transform="translate(951,569)" d="m0 0h24l24 4 8 6 5 8 2 13v24l-1 8h-2l-1 10-6 21-6 9-10 8-16 7-12 3h-4v2l-26 3h-25l-16-2-12-3-10-4-11-8-8-10-8-15-8-24-2-10v-13l3-8 4-1v9 3h-1l-1 6h2l2 4 9-2 3 2h9l2 3 5 1v2l4-1 5 5 13 1 2-2 6-1 1-4-4 1-3-7-2-1 1-2h3l6 2h11l9-4 7-11 1-6 3-1 3 2v2l2 1-1 6-2 3h-2l1 4h3l1-2h4v-2l4-2 5 1 1-2h4v-2l9-5 2-1v-4l-3-1v-2h-2l-1-3-9-2-3-2-13-2v-2l-7-2-1-4 9-3z" fill="#404040"/>
<path transform="translate(608,914)" d="m0 0h2l2 4 5 2 2 1-1 6h2l3 5 4 1 3 9 6 2-1 4 4 1 3 3v5l3-1v5l4-1 1 4v2l4 1 2 4h2l1 4h3v3l7 2 4 1v2h-2l7 7 1-2h2l1 3v-4l7 2 2 1v2l4 1 14 6 8 3v2h-6l3 3 2-1 10 4 1 2h-4v2h12l2 3h5l3-1v2l7 1 3 4 5 3v2l7-1-1 3 14 3v5l-5 1 1 3 5 1 6 3-4 5v2l2 1 2 4 2 1-1 10h2l2 6 4 1 8 6h1l-1 7-3 6h14l8-1h23l2 1v2l3 1-18 18-8 7-9 8h-7l-8-6-10-5-4-3v-3l-14-3-10-6-11-6-16-9-6-3-9-3-21-11-14-9-17-12-4-3v-2l-5-2v-2l-4-2-6-5v-2h-2v-3l-4-1-6-7-5-5-7-11-8-21-5-30-4-27v-9l-2-1z" fill="#969696"/>
<path transform="translate(640,576)" d="m0 0h29l19 2 9 2v2l-24 3-13 2-13 5-9 6h-4l-1-1-5 1 6 3 1 3 9 1 7 1 13 1 1-2h-2v-2l-4-1 8-6 6-3h2l-2 6 5 11 2 1 2 4 6 3h3l1 3h-2l-1 2-2-1-1 3 4 1v2h5l1 5 10 4 7 2h9l8-3h2v-2l4-1v-2l2-1 1-3 6-4 3-4h2v-3l-5-1-1-5 1-2 6 1v4h2l1-8h5l-1-4-8-6-16-8 2-1 19 7 7 6 5 10v15l-3 15-7 21-7 14-7 9-8 7-8 4-19 5-6 1h-33l-17-2-18-3-11-4-12-6-7-5v-2l-3-1-6-10-6-16-4-20-2-17 1-15 4-10 8-6 4-1-5 5-4 5-3 8v18l3 19 3 12 4 8 1-3-2-22 1-20 2-16 10 1 1 2 3-2 2 2-1 2h7l-5-4v-2h-2l-3-4-2-6-3 1-2-5 22-4z" fill="#C9C9C9"/>
<path transform="translate(628,389)" d="m0 0 5 1 5 2h6l2-2 4 1 6 2 1 1h11l7 1 1 3h7l3 3 1-3h-2l1-2 6 3 2 3 10 2 6 2-2 4 8-3h7l5 1 7-1 3-1 9 1 4-1v2h11l1-1h15v2l8 2 1 2 12 4 3-3h2v-2l12 2 5 3 3 3 3 1-3-5 8 2h14l1-2 9 1 5 3 2-1v2h4l3 3 4 12 1 7-1 6 2 1 3 10v8l3 1 2 3 2 17-1 3-1 12-2 10-1 4h-2v5l-4 6h-3l-1 4-5 4-8 11-8 4-9 4-1 2h-2l-2 4-6 4h-16l-6-4v2l-6 2h-11l-6-2-14-1-17 1-6-2v-2l-11-1-9-2-9-3-5-1h-5l-9-3-5-2h-15l-11-1-1 1h4v2h2v2l-9 2h-4l1 4 12 3 1 2-5 1h-22v-1h19v-2l-17-2-3-2h-2-15l-9 1-5-2 2-5 4-5 7-3h4v-2l8-3 4-1 14 4 10 2 8-1h4l3 2h1l3-2 16 1v2h3l3 3 14 2v2l5 1 11 1h11l2 1 12-5h2l1-3h3l1-3 5-5 5 1 3 3 6 3 1 2 7 1 4-1 1-1 9-1 9 5h8l1-5 7-3 2-3 8-4 2-2 3-9 2-2v-11h2v-12l1-3v-14l-3-4-1-5-3-3-1-4 2-6-3-3v-6l-9-2-3-3-8-2-6 1-5-3-10 1-3-2v-2l-7-2-2-1v-2l-9 2-2-5-9 2-1 2-6-1v-4l-7-2v-4h-9l-5-3-8 1-4-3v-2l-9-1v-2l-7 1-2-2-10-1-4-1-1 1h-6v3l-4 1-1-2 1-2h-7l-3 1-1 2h-7l2-4h5v-3l-4 2v-3l-2-1v-3h2v-3l-8 3-4-1h-3l-1-1h-5v2l-5 1-7-5-1 5 1 2-5-1-3-1v3l-5-1-8-3-5-2 2 5-2 1 1 4-10 1 4 4h-3l-2 8-2 1v6l-2 1v7 4l2 2-1 1v5l1 3h-2l1 9v5h-2v3l4 2-1 1-1 9 1 2-1 6h-2l1 6-1 5h-2l-2 7-6 11h-2l-1 5-4 10h-2l-2 9-2 3-2 10 1 4 3 1 2 3 5 1-2 2-6-2-1-3-3-1-2-4v-7l2-8h2l1-7 5-9h2l1-6 3-5v-6l3-3h2l-1-3 2-1 1-4 1-2-4-1 2-1 1-9h-2l-1-6 2-7v-6l1-2-9-3 2-6 3-1 1 3 2-2-4-4 3-1-4-7 5-2v-2h-3l1-6-3-1 4-2 3-1v-5h2l-1-2-3-2 7 1-1-3-3-3h2l-3-3v-2l5 1-2-2v-2l4-1 5-1-3-3-1-4 5 1-1-1-2-3 10-1 3 1v-3l-5-1 4-1 5 2z" fill="#969696"/>
<path transform="translate(648,1382)" d="m0 0 1 3v4h-3l-1 2h6l2 2-1 10h4l-1-3 2-5 3 1v2l3 1-2 3-1 6 2-1 2-13 1-8h20l11 2v2l5 2 1 6 9 3 1-2h2l2-5-2-1h5l8 20 4 12v5l3 1 2 5 4 4 4-4 13-2 2 45 4 41v5l-5-1-7-28-6-16 1-2 1 1-1-9-5-16-2-5h-2l1 7v43l-1 9-18-1-31-3-10-1-2-2-1-26 1-18v-13l2-2-1-3 1-3-6-6-1-10-5-3-1 9-3 1-2 5-4 1 1-16v-13l-3 3-1 8h-2l1 5-2 18h-1v-23h-4l-1-18v-11z" fill="#404040"/>
<path transform="translate(604,899)" d="m0 0 4 1-1 2-1 1 3 3 2 6h2v3h2l-1-5 4 1 2-6 2-1-3 9-2 5 4 1v2h3l1 8 2 2h3l1 3v1h2v5l6-4v7l3 6 1 3 4 2 6 7v4l4 1-1 3 5 2v2h2l4 5 1-2h2l1 2 5 1 5 2 7 4 5 4v2l6 1v2l10-1 1 3 4 2 1 1 8 1-1 4h9l3 4h3v2l9 1 10 4 15 2 10 4h7l9 3 10 3 10 4h4v2l9 1 6 2h3v2h2v2l6-1 6 3 1 2 11 1 2 4-6 4-1 3 5 1 1 7 6 2 2 2-1 6h-3l-1 6v4l-7 8-10 8h-2v2l-8 7-12 12-8 7-6 5-4 4h-2v3h-2l-1 3-3 1v-2l-6 1-11-8-11-6v-2l-4-2-15-10-10-7v-2l-3-1-5-2-4-4-4-2-2-4h-2v-2l-5-1-12-6-13-8-5-2v-2l-5 1-2-4-2-1-1 2-4-3v-2l-2-1 1-2-4-2-4-4-4-2v-2h-6l-1-3-4-2-1-3 1-1-2-1v-2l-4 1-3-6-6-7-3-6 3 1 5 5v2l4 1v3h2l5 5 5 4v2l5 2v2l4 2 17 12 7 5 11 6 21 11 7 2 15 8 16 9 10 6 14 4 1 3 7 4 10 6 4 3h7l15-14 8-7 11-11-2-1v-2h-25l-8 1h-9l-5-1 2-6 1-6-8-6-4-2-2-3v-3h-2l-1-3 2-7-4-2v-3l-3-1 1-4 3-3-8-3-3-1v-3l5-1-1-4-14-3 1-3-3 1-3-1-2-3-4-2-2-3-7-2v-2l-3 2h-5l-2-3h-9l-3-1v-2l3-1-5-2-6-2h-3l-1-3h6l-1-2-13-4-2-2-6-2-4-2v-2l-8-2-1 4-1-4h-2l-1 3-1-3-5-2-1-3h2v-2l-3 1-8-4v-3h-3l-1-4-3 1-1-5-4-1-1-5h-4l-1-4h-2v-5l-3-1v-2l-4-1-1-4-5-2-1-5-2-2 1-2-5-1-2-5h-2l1-6-6-1-2-1-1-5h-2l-1 5 3 1v10l4 26 4 25v5l-2-4-4-23-5-34-3-21z" fill="#404040"/>
<path transform="translate(756,820)" d="m0 0h14l12 2 15 1 5 1-2 5h3l1-4 4-1h7l1 2-1 2 6-2v2l7 1 2 5-3 3h-6l-3 1-1 3 2 1-1 3-10 2-4-1v-5h-3v-2l-4 1 2 3-5 2 1 4-6 2h-4v2l-2 1 3 1 1-2 5 4v2h2l-2 4-11 1-5 2-3-1-10 2h-3l1 3-12 5v3l5 1-3 2-2 2 2 2 3-1v2h-2v2h-3v2h6l1 3 2-1v2h2l2-4h3l-2 6h2v2l7 1v2h-2v5l-1 4 3 1-2 1-1 4h-2l-2 8h-1l-4-12-1 1 1 5-3 1 1-5h-2l-2 6-2-2-1 7-2 1-2-3-2 1 2-10-5 1-4 2-2-1-1-4-2-2h-2l1 2 2-1-1 4h-4v-5h-2l-1-3-4 1-3-2-1-4-2 3-2-7v-3l-1 1 1 6-3 1v-3l-1 2h-2v-4h-2l-1 3-1-4-2-1 4-2 1-2h-2v-2h-2l-1 3h-3v-4l-2 1v-2h-3l-1 2v-2l-2-1v-2h2l2-9-3 2h-5l3-13-2-2 3-1h3l2-5 3-2v3h2v-3h2l1-2 1 1 1-5h2v-2h2l1-3h3v-2l-3-1 3-1 4-5 1-2 10-2h8l1 1 2-2h-3v-2l8-1 1-2 5-3z" fill="#959595"/>
<path transform="translate(608,914)" d="m0 0h2l2 4 5 2 2 1-1 6h2l3 5 4 1 3 9 6 2-1 4 4 1 3 3v5l3-1v5l4-1 1 4v2l4 1 2 4h2l1 4h3v3l7 2 4 1v2h-2l4 4 1 5 7 1 1 3-3 3 6 1v2h3v2l-14-2v2l5 1 7 3 5 1h3v3h-9l-2-1v-3l-10 1h-5l9 3 5 4 7 1-1 2 5 1v3h6l-2 4h-2v2l19 4 1 2-7-1v3l2 1-8 3h-9v2h-2l3 4h5l6 6 10 3v3l7 1 5 4 4 1-2 5 5 1 3 2-2 4-5-2h-4v2l-2 2v3l4 2-7-1-14-7-4-3-12-6-7-3-17-12-4-3v-2l-5-2v-2l-4-2-6-5v-2h-2v-3l-4-1-6-7-5-5-7-11-8-21-5-30-4-27v-9l-2-1z" fill="#C7C7C7"/>
<path transform="translate(519,549)" d="m0 0 4 1 3 6h-2l-1 7-3 12h-2l-1-6 2-4 1-9h-2l-2 13h-1v5l4 4-1 6 5 5v3h2v-2l16 3v3l-7 1 3 2h8v9l-3 16-2 7 2 3-3 6h2v13l2 9 1 6 1 4v17l-3 7 5 1-4 2v3l2 1v3l2 2-3 3 5 7v4l3 1 1 5-2 1 1 4h-2l2 5 1 7 2 1h-4l-8-5-7-9-4-10-1-6-4-9-3-8-7-15-4-18-2-20-1-21-4-21-1-3v-7l4-17 3-8 2-10 4-9z" fill="#C7C7C7"/>
<path transform="translate(669,576)" d="m0 0h12l23 3 24 4 8 2-1 2 9 4 11 6 5 5v4h-5l-2 7h-2l-1-3-5-2 1 6 4 2v3l-5 5-4 3h-2l-1 4h-2v2l-4 1v2l-10 4h-9l-7-2-11-5v-4l-5-1v-2l-6-1 3-1v-2l4-2-10-5-1-4-3-1-5-11 3-6-8 4-5 4-2 1 3 1v2h2l-1 3-14-1-6-1-9-2-2-3-5-2-1-2 4-1 2 1v-2l2 1-1 2 4-1 2-2 12-6 8-3 31-4h6v-2l-3 1-6-2-19-2z" fill="#404040"/>
<path transform="translate(760,602)" d="m0 0 2 1 1 9-1 16-4 15-5 11-4 7-2 6-8 11-8 8-5 2-3 3-12 5-12 2-24-1-1-2 2-2v-2l5-3 4-1 1-5 4-5-3 1v-6l3-3 4-1-1-3 4-2 1-2-2-1v-2h2l1-3-5-3 1-7 1-2v-4l-9-3-3-2 1-5-3-1-5-4 3-2h3l-1-4-2-1v-2l-6 3 2-5v-3l4 1 2 4 6 3h3l1 3h-2l-1 2-2-1-1 3 4 1v2h5l1 5 10 4 7 2h9l8-3h2v-2l4-1v-2l2-1 1-3 6-4 3-4h2v-3l-5-1-1-5 1-2 6 1v4h2l1-8h5z" fill="#959595"/>
<path transform="translate(1060,519)" d="m0 0 5 2 3 1 7 8 5 8 2 10v17l-4 29-2 16-2 14h2v12l-4 33-4 21v17l-2 9-5 10-6 4h-4-2v-3l-3-1v-5-2l1-5h2l-2-13-1-6 1-2h2l-2-9 1-11 1-4-1-6 3-9 3-3 2-4v-4l3-1v-8l2-4-2-5v-11l-1-2h2l-4-4-3-15h-3l-2-1-1-6 3-5 3-1v-6l-4-1 1-4 10-5 8-7 6-8 1-4-4 2-3-1 4-5-3-1 2-6-5-1h-3l-1-9-2-2z" fill="#414141"/>
<path transform="translate(909,1490)" d="m0 0 3 1 1 57h3v2h2v10l1 3-4-1v11l1 13-6 1h-10l-2-22-18 1-3 18-2 16h-14v-12l-11-28-4-13-5-21v3l-8-1-5 1v-3l13-3 8-1 3 5 7 24 1 1h7l2-8 4-22 4-2 11-1 1 4-5 26h13l-1-19v-38l1-1z" fill="#C6C6C6"/>
<path transform="translate(955,1510)" d="m0 0 10 1 9 5 7 8 4 10 1 6 21 1v4l-10 2-3 2-14 1-2 1h29v3l-11 1-24 1-4 2h-26l4 10 1 2 3 1h10l7-3 3-5 2-3 12-1 3 2-2 6-6 8-6 5-9 3h-18l-8-3-5-5 2-4 1-1v-14l-1-6v-23h-1v-5l7-7 9-4z" fill="#414141"/>
<path transform="translate(785,1524)" d="m0 0h16l9 3v1h-9l2 2-2 1 3 2v5l-4-2h-10l-4 2-2 4 1 5 11 4 12 3 4 2 1 5v9h2l-1 6h2v11l-5 5-8 4-12 1-8-2-7-6-5-12-2-11-2-10h2l-1-7v-11l4-6 6-5z" fill="#959595"/>
<path transform="translate(567,1415)" d="m0 0h14v43l2 7 4 3 3 1h7l8-3 2-2 1-5 2-42 1-1h11l3 1v39l-1 26h-16l-1-10-6 7-7 4h-11l-10-2-6-5-2-5-1-9v-15l1-22 1-9z" fill="#CACACA"/>
<path transform="translate(823,1504)" d="m0 0 5 1 2 21h-2v3l5-2h5l2 1 1-3 2 6 6 24 4 11-1 2-4-1h-16l1 10h10l2 4v8l-1 2-4 1h-15l-5-5-3-16-4-29-2 3-3-1-4-4-1-7-5-2-2-3 8-1h7v-21l1-1z" fill="#444"/>
<path transform="translate(518,548)" d="m0 0 7 1 6 3 1-1v-3l7 3v2h-2v3l5-1 2-2 3 2-3 3h-2l2 6 3 4v3h-3v2l-6-1 1 2 5 2 4 4 1 10-4 2v-3l-17-1v2l14 1 2 3 9 3 1-3 3 4h-2l1 4-3 5 1 7-1 3h-2v4l2 1h-3l-1 4h-4l1 14 1 3v12h2l1 5h-3l2 5h-2v2l2 1 1 7h-2l1 6v4h2l-2 6 5-2 2 2v5l-5 1v4l5 2-1 4-5 2 1 4 3 5v2l7 2-2 4 1 3 2 2-5 5v3 2h3l-1 4-2 3h-5l2-2-3-6-1-7h2v-3l-2-1 3-1-2-5-2-1-4-10-2-1 3-3-2-2 1-3-3-1 1-4 2-1-3-1 1-6 1-3v-18l-2-4-1-7-1-10 1-8h-2l2-7-2-3 2-6 3-16 1-9-8 1-4-4h8v-3l-13-1-3-2v2h-2v-3l-4-2-2-4 2-5-3-1-2-3v-6l2-3 2-9h2v9l-2 4v6h2v-5l5-15-2-5-6 1z" fill="#404040"/>
<path transform="translate(843,1430)" d="m0 0 9 1 6 4 6 10 2 8v14l-6 2-18 2h-12l3 11 3 5 4 1 7-3 4-5 5-3h9l-3 9-6 9-5 4-9 3-9-2-8-7-3-5 1-2 2 1v-4h2l-2-10v-12l1-8h-5l1-5 7-11 5-4z" fill="#969696"/>
<path transform="translate(761,822)" d="m0 0 8 1v2l7-1 10 2 3 2v2h5v2l-7 1-3 3h-3l-1 2-4 2h2v2l-6 2h-5l-3 1v2l-5-1-1 5 7 1 1 4-3 3h-6l-5 2h-7l2 3-9-2-1 2 4 2-4 1-4 2-2 8h-12v2l-9-3-1-4-2-2v-4h3l-5-1 1-7 2-1 2 2v-4h2v2h2l-1-3h-3v-2l4-2v-2h3l2-5 3-8h3l-1 1 3 1 6-1 5 2 18 4v-2l-3-1-4 1 1-3-2-1 3-1-3-2v-3l5-3h3v-3z" fill="#C8C8C8"/>
<path transform="translate(778,752)" d="m0 0h3v2l7-1 5 2 8-2 4 3-5 2 2 2-14-1v-2l-13-1-5-1-2 4-7 3-3 5h-2l-1 4-3 4-2 4h-4l-1 2-2 1v-2l-3 1-2 2-1-2-3 4-2-1v3h-2l1 4h-2l-2-4-2-1-1 3-6 2-4-2h-3l-2 2-3-1-3 1-1-1-2 2h-3v3l-6 2-3 5h-3l-1 4v-2l-3 2-2 3-4 4-2 9h2v2h-2v6 2l1 4-3 5-2 6-2-2-4 4 1-5 3-10h-4l-1 6h-2v-5l-5 2-2 6-1-4 1-4h-2v-10l-2-1v3l-1 7-1-3-5-1-1-10-4 1 1-7-2-2-5 1-1 5-1-4 2-5 1-7-3 1h-2l-2 2 1-10-1-4-5 9-1-2 2-9-3-1 3-8 3-2 1 4 1 1 3-7 2 3 3-3-1 4h2l1-3v2l3-1-2 5v1l2 1-2 7v8h2l1-3h3 1l1-9 2-1v11 4l5-3v8l1 3 4-1v6l-4 4 2 1 3-1 2 7 3-4h2l2-2 1 6h2l-1-5 1-3-1-3 5-8 2-1 1-6h2l1-4 3-2 3 1 1-5h2l1-4h4l4-1 4-2h2v3h2l1-3 5-3 5 1 1 3 1-2h7l5-7h2l2-2 7 1v2h2l1-4 5 1 3-6h2l-1-4 5-4 6-1v-2l4-3h7z" fill="#969696"/>
<path transform="translate(628,389)" d="m0 0 5 1 5 2h6l2-2 4 1 6 2 1 1h11l7 1-1 7-4 2-4-1h-3l-1-1h-5v2l-5 1-7-5-1 5 1 2-5-1-3-1v3l-5-1-8-3-5-2 2 5-2 1 1 4-10 1 4 4h-3l-2 8-2 1v6l-2 1v7 4l2 2-1 1v5l1 3h-2l1 9v5h-2v3l4 2-1 1-1 9 1 2-1 6h-2l1 6-1 5h-2l-2 7-6 11h-2l-1 5-4 10h-2l-2 9-2 3-2 10 1 4 3 1 2 3 5 1-2 2-6-2-1-3-3-1-2-4v-7l2-8h2l1-7 5-9h2l1-6 3-5v-6l3-3h2l-1-3 2-1 1-4 1-2-4-1 2-1 1-9h-2l-1-6 2-7v-6l1-2-9-3 2-6 3-1 1 3 2-2-4-4 3-1-4-7 5-2v-2h-3l1-6-3-1 4-2 3-1v-5h2l-1-2-3-2 7 1-1-3-3-3h2l-3-3v-2l5 1-2-2v-2l4-1 5-1-3-3-1-4 5 1-1-1-2-3 10-1 3 1v-3l-5-1 4-1 5 2z" fill="#969696"/>
<path transform="translate(651,1103)" d="m0 0h1v12l-4 7-6 8-4 7-1 4 3 1v4l-1 1 1 6h3l3-5 3-1 3 6h-3l4 3v13l-2 6-4 1-2 7-4 1v3h2v2h-3v2l-4 1 1 3 4 1v7l-2 5-4 18 4-4 3-7 3 1 1 12 2-22h3l1 6 1 20 1 3-4 1-2 7-7 1v6l-4 4-2 7h-1v-44l3-15 1-3-4 2-1 3h-2v-30l2-16v-28l1-11 2-7h3l1-3 1 2 6-2 1-4z" fill="#414141"/>
<path transform="translate(553,1507)" d="m0 0h28l62 3 11 1v11l-2 6-25-1-43-2-5-1-23-1-3-1z" fill="#414141"/>
<path transform="translate(909,1490)" d="m0 0 3 1 1 57h3v2h2v10l1 3-4-1v11l1 13-6 1h-10l-3-35-1-2-3-1h4l-1-19v-38l1-1z" fill="#C8C8C8"/>
<path transform="translate(990,583)" d="m0 0 3 1 2 6 2 1 2 8 1 16 1 31 2-5 3-18-1-18-3-8v-2h4l1-7 3 1 2 6v37l-5 21-4 12-6 8-11 8-14 6-16 4h-8l3-2 9-2 17-5 11-7 4-10 1-11-1-6h-2l-2-7-2-18 1-1-2-18-1-5v-10z" fill="#969696"/>
<path transform="translate(931,1415)" d="m0 0h1v10l-2 9-2 1v3h2v7l-3 3h-2l-1 6-4 5-1 5 1 1v18l-1 3h5l1-5 4-1 2 2v8l-5 8h-3v2h-2l1 8 1 35 1 17h-2l-1 4h-5l3-1-2-4 1-9h-2v-2h-3l-1-2v-45l1-16-1-19v-31l3-5h2l-1-3 5-1v-3l3-1 1 3h2l1-7z" fill="#404040"/>
<path transform="translate(564,592)" d="m0 0 4 3v2h-2l1 4-1 7 1 2h-2v21l3 15h-2v2l3 1v6l3 3v4l5 1 2 9h-2v2l2-1 2-3 1 4 2 1 1 1 1 5 5 1-3 4v2h4l1 4 1 3-2 1-1 3h3l1 3-1 1 4-1-1 4h2l-1 4-3 5h4l1 4h2l1 2 4 2-7 2 1 2 7 1-1 3 3 1-3 2-1 3h5l4-3 3 1-5 5-3 4 4 1-3 5 8-1 1 3-4 4v3h4l1-5 2-3 3 1h-2l-2 5-1 2h2v-2l2 1-1 4 1 2-1 2 7-6 3 1-2 4h-2l-2 6-4 4v-3l-9 3-1 3-2-1 2-3h2l-1-4 3-5-5-1 1-3-3-1-2-1 1-4-2-1v2h-2l2-5h-7l2-5-2-4-4-1 2-1-1-8-5-1 3-1-1-3 1-3-5-2 2-3-3-8v-2h-2v-2l-5-5-2-4v-4h-2l-4-11-3-5-6-15-2-13-3-17v-10l3-28z" fill="#969696"/>
<path transform="translate(955,1510)" d="m0 0 10 1 9 5 7 8 4 10 1 6 21 1v4l-10 2-3 2-14 1-2 1h29v3l-11 1-24 1-3 1h-7l5-4-26-1 1-2h5l1-4-1-4 10-2 12-1-4-10-4-4-7-1-8 3-4 3 1-7 6-5-7 2-5 3h-2l2-4 6-5 7-3z" fill="#C6C6C6"/>
<path transform="translate(791,612)" d="m0 0h13l5 4 3 7 1 21v22l1 4v8l3 7 2 9 1 20-2 5-3 7h-2l-1 5-4 5-1 4-8 4h-4v2l-6 3 3 3h-5l-1-2-3-1v-2l5-1 2-7h2v-2l4-4v-2l4-2h3l-1-8 3-4 2-11v-7l1-4-4-10 1-30v-31l-2-4-3-5h-7l-5 2-6 5 2-5z" fill="#969696"/>
<path transform="translate(959,493)" d="m0 0h2l2 4 2 1v2h2l6 8 5 2 1 4 1 3 3 1v2l3 1 2 2 4 3v3l4 2 1 5-1 2 7 2v2l5 2v8h-2v2l-4-1-1 3-13-2-5-10-5-6-11-6-1-2-6-3v-3l-4-1-4-4 1-7 5-1 2 3-1-8v-2l-1-4z" fill="#959595"/>
<path transform="translate(652,1438)" d="m0 0 1 4 1 2 5 2-1 9-3 12 4 1 1-10h4l1 13 1 2 4-27h2l1 7-1 26-3 2-1 3h-2l-2 4-2 1-2 7-4 5-4 1-53-3v-1h27l2 1v-2l-5-1 2-1 1-3 5-2 3-6h16l2 1v-9l-3 1-1-5 1-23z" fill="#404040"/>
<path transform="translate(773,1433)" d="m0 0 16 1 2 44 1 9 8 2-2 1 1 12-1 1h-7l-10-4-6-7-2-7z" fill="#979797"/>
<path transform="translate(640,576)" d="m0 0h29l19 2 9 2v2l-24 3-13 2-13 5-9 6h-4l-1-1-5 1 6 3 1 3 9 1v1h-10l-11-3-5-5-1-3h-2l-3-4-2-6-3 1-2-5 22-4z" fill="#C4C4C4"/>
<path transform="translate(692,584)" d="m0 0h21l12 3 1 3 7 2 3 3 1 7h-3l-3 3-4-1v3h-2v-7l-5 1v-3h-2l-3-3-1 2-4-1 1 5-2 4-2 7-12 2-2-1v-3l5-2 2-2h3v-4l-1-2 4-1v-3l-4 2-1 3h-2l-2 4-5 4v3l-4 1-1-5-2-1 1-4-6 1-2-2v-3l7-2-3-1-1-3-8-1v2l-8 3-9 5-6 2-2-4 18-9 10-4 7-2z" fill="#050505"/>
<path transform="translate(733,1434)" d="m0 0 7 6 4-4 13-2 2 45 4 41v5l-5-1-7-28-6-16 1-2 1 1-1-9-5-16-8-14z" fill="#C5C5C5"/>
<path transform="translate(707,806)" d="m0 0 2 4v2h2v2l3-2 2-4 3-1v3l5-2 1 3 9 1 3 1 7-1 7 2-1-3v-2l4 1 4 4 10 2v2l-10 1-8 1-10 3-14 7-9 2-3 3h-3v2l-3 2h-7l-2 1 2-6 2-4-1-4-3 3-1-4-1 4-2-1-2-5 2-4 2 1-1-7 6-1v-2h3z" fill="#060606"/>
<path transform="translate(843,1430)" d="m0 0 9 1 6 4 6 10 2 8v14l-6 2-18 2h-12l1 9-2-2-1-7 3-8h-3l1-4v2l20-4h3l-3-10-2-2h-8l-4 3h-2l-5-6-2 1 2-5 6-5z" fill="#C7C7C7"/>
<path transform="translate(518,548)" d="m0 0 7 1 6 3 1-1v-3l7 3v2h-2v3l5-1 2-2 3 2-3 3h-2l2 6 3 4v3h-3v2l-6-1 1 2 5 2 4 4 1 10-4 2v-3l-17-1v2l13 2v1l-13-1-3-2v2h-2v-3l-4-2-2-4 2-5-3-1-2-3v-6l2-3 2-9h2v9l-2 4v6h2v-5l5-15-2-5-6 1z" fill="#424242"/>
<path transform="translate(785,1524)" d="m0 0h16l9 3v1h-9l2 2-2 1 3 2v5l-4-2h-10l-4 2-2 4 1 5 11 4 7 2-2 3-5 1 6 3v5h-18l-11-2-4-9-1-5v-11l4-6 6-5z" fill="#C7C7C7"/>
<path transform="translate(876,842)" d="m0 0h6v6h2v2l3-1 5 4 2 3v4h-7-1l12 1 2 4v3h-2l-2-2-7 1-1 3-5 2v6h-2v-2l-8 2-3-6-4 1-1-2 3-5h-2v-2l2-2 3-2-12 2h-3l-6 2h-6v-2l-5 1-3-1 3-3 1-3 6 1 2-3 5 1-2-3 10-2 1-1h5l1-2 8-4z" fill="#3C3C3C"/>
<path transform="translate(684,1421)" d="m0 0 6 1 6 4 3 6 1 6v28l-1 22-13-1-2-1v-49l1-9v-5z" fill="#969696"/>
<path transform="translate(754,674)" d="m0 0 1 3-4 9 3-1 2-4h2l-1 5-1 2h-2l-2 4-7 8-9 9-5 6-3 5h-6l-3 1v-2l-13-3-10-1-1-2h2v-2h-2v-2l-13 1-1-1-23-3v-1h42l17-3 18-6 6-7h3v-2l3-1 5-8z" fill="#404040"/>
<path transform="translate(725,1425)" d="m0 0 4 1 1 4-1 50-1 12-14-2v-15l1-29 1-15 5-5z" fill="#969696"/>
<path transform="translate(666,707)" d="m0 0 15 1 5 1h9v2h2l-1 3 11 1 6 2 7 1-1 3 3-2h6l2-6 5-2-6 14-2 11-5 4-5 1-1 4-1 3-11 1-3-3 1-2-2-1 3-3v-6l4-2-3-4-2-2-2-7h-5l-7-2-3-2-7-1-5-4-7-2z" fill="#959595"/>
<path transform="translate(598,581)" d="m0 0h7l3 4h2l5 8v2h2l4 4 3 2-3 1-6-1-1-3-3 2-1-3-10-1-1 16-1 20 2 25h-3l-4-8-4-18-2-13v-18l4-10 8-7z" fill="#414141"/>
<path transform="translate(683,1514)" d="m0 0h10l40 4 3 2 1 13h-14l-42-5-4-2 3-7 7-1z" fill="#404040"/>
<path transform="translate(734,586)" d="m0 0 11 3 10 4 7 6 5 10v15l-3 15-7 21-7 14-7 9-8 7-8 4-19 5-6 1h-33l-17-2-6-1v-1l17 1 11 1 6-1h19l12-2 13-6 6-4 7-6 8-10 3-6 1-4 4-6 4-10 4-15 1-16-1-9-11-8-16-8z" fill="#C3C3C3"/>
<path transform="translate(1049,685)" d="m0 0 10 3 3-3 3 1 1 8 2 6-1 13-5 12-7 5h-4-2v-3l-3-1v-5-2l1-5h2l-2-13-1-6 1-2h2l-1-5z" fill="#414141"/>
<path transform="translate(967,571)" d="m0 0h19l13 2 8 6 5 8 2 13v24l-1 8h-1l-1-37-1-6h-2l-2 8-4-2 4 10 1 20-4 19-2 3-1-1-1-31-1-16-1-8-3-1-2-6-2-2 5-1 2 3 5-1-2-5-2-2h-13l-3 1-1-1-12-1v-2l-3-1z" fill="#424242"/>
<path transform="translate(979,1559)" d="m0 0 7 1 1 3-6 10-8 7-9 3h-18l-8-3-5-5 2-4 4-5 1 5h20l7-3 3-5 2-3z" fill="#C2C2C2"/>
<path transform="translate(553,1507)" d="m0 0 40 2v6l6 4v3l9 1v1h-29l-23-1-3-1z" fill="#959595"/>
<path transform="translate(658,1326)" d="m0 0h2l2 17 1 5v6h-3l-1-7-2 5v10l-3 4-1 5h2v6l-1 2h-3v-2h-2v5l-2-1v-2h-2l-1 4-2-7v-14l2-12 2-7h2l1-7 3 1 1 6 3-7 1-9z" fill="#484848"/>
<path transform="translate(936,1353)" d="m0 0 2 1-3 24-3 7-7 11-2 1-3 7h2v9l-2 3-2 7h-3v-23l1-10 1-16 1-2h2l1 7v8h3l-1-3v-5l-1-2 1-2 1-12 4 1 2 3 1-1 2-9z" fill="#404040"/>
<path transform="translate(608,914)" d="m0 0h2l2 4 5 2 2 1-1 6h2l3 5 4 1 3 9 6 2-1 4 4 1 3 3v5l3-1v5l4-1 1 4v2l4 1 2 4h2l1 4h3v3l7 2 4 1v2h-2l4 5h-4l-3-2-5 3-3-3 4-6-3 1-4-7-5 2-1-1h-7l1-5-2-4h2l-2-6v2h-3l-1-6-2-3v-3h-5l-1-5-4-2-2-5h-2l-1-5h-3v5l-2 3h2l-1 3-5-2 2 12-2 1-4-25v-10l-2-1z" fill="#9A9A9A"/>
<path transform="translate(957,1178)" d="m0 0h2v11l-2 4-4 1-1 5 1 1-1 9-4 6-2 6-4 1-1 6 2 1-1 10-2 5-4-1 1-5h2v-4-3l-2 1-1-8 1-18 3-9v-5l4-1h2l2-7 5-1h2z" fill="#494949"/>
<path transform="translate(542,612)" d="m0 0h1l-1 12-2 7 2 3-3 6h2v13l2 9 1 6 1 4v17l-3 7 5 1-4 2v3l2 1v3l2 2-5 4-1-6-2-1 1-8-1-5 3-3-1-1v-5h-2v-2l4-2-1-6-2-2-1-5-4-2v-7h-3v-2l-3-2v-8l-2-1 1-10h2l1-4h3v-2h-2v-2l7-3v-6z" fill="#969696"/>
<path transform="translate(769,1562)" d="m0 0 1 2 6 1 24 3v2l-6 1h-14l5 10 7 3h10v3l-2 3 4 1 5 1-3 3-10 2-11-1-6-4-4-5-4-10-2-11z" fill="#C7C7C7"/>
<path transform="translate(664,1519)" d="m0 0 4 2v3l5-4 4 1-1 6 1 11-3 2h-5v7l-2 4h-2l-2 5-4 2v2l-4 3v-22l1-14 3-1 3 5 1-11z" fill="#3C3C3C"/>
<path transform="translate(598,582)" d="m0 0 2 1-8 7-4 10v18l3 19 3 12 4 8 1-3-1-11v-11h1l3 21 2 11 1 11 2 4 3 1 4 4 5 3-2 1-12-7-1-3-3-1-6-10-6-16-4-20-2-17 1-15 4-10 8-6z" fill="#959595"/>
<path transform="translate(950,1238)" d="m0 0 2 1-1 6-2 3-1 10-1 2-1 6-4 1-3 11-4 2h-2v5l-5 1v-10l2-11 5-10v-10l6 1 4-7z" fill="#444"/>
<path transform="translate(1067,523)" d="m0 0 6 4 6 9 3 12v17l-4 29-2 16-1 14-1 5h-1l-2-7-11-33-2-4v-4h2l5 11 3 9 1 6 2 1-1 4h2v-14l1-9 1-11 2-2 1-4-3-1 2-10 2 1 1-8-2 1 1-11-4-9-8-9z" fill="#959595"/>
<path transform="translate(790,1535)" d="m0 0h10l4 3v2l4 2v2h3l1-5 2 3 2 19 1 11v15h-1v-11h-2l1-6h-2l-1-14-16-4-11-4-2-2 1-6 3-4z" fill="#090909"/>
<path transform="translate(804,1436)" d="m0 0 6 1 1 37v18l-1 8-7 3h-5v-13l5-1z" fill="#414141"/>
<path transform="translate(938,1296)" d="m0 0 4 1-1 8-3 16-7 11-1 5-1 2-4 1-3 5h-2v-11l2-15 3-6h2l1-8 4-4 1 1 1 10 1-11z" fill="#404040"/>
<path transform="translate(649,1205)" d="m0 0 2 1 1 6 1 20 1 3-4 1-2 7-7 1v6l-4 4-2 7h-1v-27l3-9 5-10 3 1 1 12 2-22z" fill="#979797"/>
<path transform="translate(960,1065)" d="m0 0h1l-1 11-3 11v12l-7 14-1 7-4-2-1-9v-27h4l2 2 1-8 5-5z" fill="#444"/>
<path transform="translate(954,1127)" d="m0 0 3 2v3l2 1-2 12v7l-3 7-3 6h-3l-1 5h-2l1 5-4 1v-3h-1v-7l3-21 2-9 5-1 1-6z" fill="#414141"/>
<path transform="translate(647,1416)" d="m0 0h1l1 28v32l3-1 1 4-1 6-9-1-1-1v-31l1-34 2-1 2 1z" fill="#C4C4C4"/>
<path transform="translate(856,1477)" d="m0 0h9l-3 9-6 9-5 4-9 3-5-1-2-7h3l-6-7-1-6 4 4 1 2 4 1 7-3 4-5z" fill="#C7C7C7"/>
<path transform="translate(954,1523)" d="m0 0 7 1 6 7 2 5v3l-2 1-27 2v-7l5-8 5-3z" fill="#0A0A0A"/>
<path transform="translate(882,855)" d="m0 0 5 1-1 4 12 1 2 4v3h-2l-2-2-7 1-1 3-5 2v6h-2v-2l-8 2-3-6-4 1-1-2 3-5h-2v-2l2-2 4-2 7-3h3z" fill="#3E3E3E"/>
<path transform="translate(787,1435)" d="m0 0h2l1 20v28l-1-4-3 1-5-4-3-6 2-23 2-6 3-3z" fill="#C6C6C6"/>
<path transform="translate(645,1275)" d="m0 0 5 3v9l2-5 1-5 1 3h2v8l-1 7-2 1-1 6-7 1-2 10h-2l-2 4-1-7 2-15v-9l3-1 1-9z" fill="#989898"/>
<path transform="translate(800,1569)" d="m0 0h6l6 2-1 5-1 4h-4l-3 3-6 2-9-1-5-5-3-5v-3z" fill="#0A0A0A"/>
<path transform="translate(744,735)" d="m0 0h11v2h2v-2h8l13 7v5l-1-2-7 2-2-1v2h-11l-3 2v-3l-8-2v-2h-2l-1-3-5-1 3-3z" fill="#969696"/>
<path transform="translate(652,589)" d="m0 0h10l-3 2h-2l-1 3 2 2-8 4v4l14-7 2-2v3l-6 4 3 1v2h2l-1 3-14-1-6-1-9-2-2-3-5-2-1-2 4-1 2 1v-2l2 1-1 2 4-1 2-2z" fill="#404040"/>
<path transform="translate(519,549)" d="m0 0 4 1 3 6h-2l-1 7-3 12h-2l-1-6 2-4 1-9h-2l-2 13h-1v5l4 4-1 6 5 5v3h2v-2l10 2v1h-6v2l-10-1 1 3-4 2v-7l1-3-4 4h-2l-1-4 4-4 2 1v-4h-2l-2-6 1-2h-2l2-12 5-12z" fill="#939393"/>
<path transform="translate(604,899)" d="m0 0 4 1-1 2-1 1 3 3 2 6h2v3h2l-1-5 4 1 2-6 2-1-3 9-2 5 4 1v2h3l1 8 2 2h3l1 3v3 2h-2l-3-4 1-2-5-1-2-5h-2l1-6-6-1-2-1-1-5h-2l-1 5 3 1v10l4 26 4 25v5l-2-4-4-23-5-34-3-21z" fill="#414141"/>
<path transform="translate(669,576)" d="m0 0h12l23 3 19 3 1 3-5 1-11-1h-16l-15 2-2 2-9 3-5 3h-8l4-4 2-1-4-2 5-2 31-4h6v-2l-3 1-6-2-19-2z" fill="#414141"/>
<path transform="translate(837,1534)" d="m0 0h6l3 9 1 10-14 2h-3l-1-17 3-3z" fill="#070707"/>
<path transform="translate(728,354)" d="m0 0 4 1 4 7-3-1-2 3h-2l1 3 4 1 4-1 1 7-7-1 4 5h-10l-4-3-4-1-6-4-1-3 3-1 3 1-3-4 10 1v-2h2l-2-5z" fill="#3C3C3C"/>
<path transform="translate(651,1103)" d="m0 0h1v12l-4 7-6 8-4 6-3 1-1-1 1-16 2-8h2l1-3 1 2 6-2 1-4z" fill="#959595"/>
<path transform="translate(683,369)" d="m0 0 6 3-2 4h2l4 10-3 1 5 1v2l3 1-2 1-3-1v2l-8-2-3 1-4-3v2h-7l-8-4v-3l-4 1-5-4 1-3 7 1 4 4v3l9 2h8l-1-3 3-1-3-4 1-3-4-2-1-5z" fill="#050505"/>
<path transform="translate(839,1444)" d="m0 0h8l4 5 1 8-13 3-9 1v-6l5-8z" fill="#0A0A0A"/>
<path transform="translate(820,1450)" d="m0 0 3 1v2h3v20l2 8-1 2h-2l1 6-1-2-4 1-3-10-1-1v-17z" fill="#464646"/>
<path transform="translate(610,585)" d="m0 0h9l1 3 5 1 6 4 8 2-1 3h-4l-1-1-5 1 6 3 1 3 9 1v1h-10l-11-3-5-5-1-3h-2l-3-4z" fill="#8B8B8B"/>
<path transform="translate(882,1549)" d="m0 0h11l5 2v13l-18 2-1-5z" fill="#9A9A9A"/>
<path transform="translate(793,353)" d="m0 0 6 2 3 5 7 2-1 4 1 4 5 2-1 7-3 2-3-1v-4l-3-2v-2-6l-3 1v5l1 5h-3v-3l-2-1v2l-4 1-4-4v-3l5 1v-3l3-1-2-7-2-3z" fill="#414141"/>
<path transform="translate(826,1111)" d="m0 0 4 2 3 1-4 5-5 3-4 2v-2l-5 1-1 5-4-2-1-4h-3l-1-5 5-4 12-1z" fill="#C9C9C9"/>
<path transform="translate(644,956)" d="m0 0h1v5l4-1 1 4v2l4 1 2 4h2l1 4h3v3l7 2 4 1v2h-2l4 5h-4l-3-2-5 3-3-3 4-6-3 1-4-7-5 2-1-1h-7l1-5-2-4h2l-2-9z" fill="#9A9A9A"/>
<path transform="translate(924,1363)" d="m0 0 4 1v9l-5 22-3 3-2 6h-2l-1-4 1-10 1-16 1-2h2l1 7v8h3l-1-3v-5l-1-2 1-2z" fill="#A8A8A8"/>
<path transform="translate(661,1459)" d="m0 0h2v25l4-3-1 5-4 3-2 7-5 5 1-17 2-13h-5v-2h6z" fill="#9A9A9A"/>
<path transform="translate(657,1403)" d="m0 0h1v14l-2 16-4 8-2 8h-1l-1-11h2l1-23h2l-1-5 3-5z" fill="#969696"/>
<path transform="translate(957,1178)" d="m0 0h2v11l-2 4-4 1v2h-2l-1-5-4 4-1 5-4 2-2 12-1 5h-1v-13l3-9v-5l4-1h2l2-7 5-1h2z" fill="#434343"/>
<path transform="translate(1067,523)" d="m0 0 6 4 6 9 3 12v17l-2 11-2 2-1-6-3-1 2-10 2 1 1-8-2 1 1-11-4-9-8-9z" fill="#989898"/>
<path transform="translate(814,1570)" d="m0 0 1 3-1 3h2v11l-5 5-4 1-4-2-3-1 2-5-1-2 4-1 2-4 1 2 5-9z" fill="#959595"/>
<path transform="translate(649,1205)" d="m0 0 2 1 1 6 1 20 1 3-4 1-2 7-6 1 2-2h3v-4l-3 1-1-3 1-20h1l1 12 2-22z" fill="#474747"/>
<path transform="translate(650,1090)" d="m0 0h2l2 5v11l-1 9h-1l-1-11-3 1-1 4-6 2-1-1-1 2h-2v-5l-3-3h6l2-3 5-3 2-3z" fill="#414141"/>
<path transform="translate(636,1186)" d="m0 0 4 2-2 4h-2l1 3 4 1v7l-2 5-3 15-1 11h-1v-17l3-15 1-3-4 2-1 3h-2v-15z" fill="#464646"/>
<path transform="translate(930,1303)" d="m0 0h2v14l-2 4h-2l-1 4v2l4-3-1 7-4 1-1 4-2 4h-1v-9l2-12 4-14z" fill="#9B9B9B"/>
<path transform="translate(1049,685)" d="m0 0 10 3 3-3 3 1 2 16-5 2-3-6v-2l-4-2-6-6z" fill="#C1C1C1"/>
<path transform="translate(1060,519)" d="m0 0 5 2 3 2v4l9 11 2 6v6l-4-2v-3l-4 2-3-1 4-5-3-1 2-6-5-1h-3l-1-9-2-2z" fill="#414141"/>
<path transform="translate(641,1255)" d="m0 0h2l-1 8-3 9 1 10 1 16-2 12h-1l-2-11v-14l1-8-1-8 3-10z" fill="#444"/>
<path transform="translate(519,549)" d="m0 0 4 1 3 6h-2l-1 7-3 12h-2l-1-6 2-4 1-9h-2l-2 13h-3v-7l5-12z" fill="#949494"/>
<path transform="translate(754,736)" d="m0 0 9 1 7 3 5 2-2 2-12 1-9-2-2-2-4-1v-3z" fill="#3E3E3E"/>
<path transform="translate(769,1562)" d="m0 0 1 2 6 1 24 3v2l-20 2-7 1-2 4-2-11z" fill="#C2C2C2"/>
<path transform="translate(656,1528)" d="m0 0h3l1 6v24l-5 5v-22z" fill="#989898"/>
<path transform="translate(653,1277)" d="m0 0 1 3h2v8l-1 7-2 1-1 6-1-3-5 1 1-5v-7h-3v-2l3-2v-6h3v9l2-5z" fill="#434343"/>
<path transform="translate(682,987)" d="m0 0 7 2 2 1v2l4 1 7 3 3 5-2 1-5-1v-2l-7-2-1-2-6-2-1 2-8-3v-4h2l1 2 1-2h2l1 3z" fill="#9F9F9F"/>
<path transform="translate(985,575)" d="m0 0h13l5 6-1 3-5 1-2-4-12 4-2-1 2-4h2v-2h-2v-2z" fill="#050505"/>
<path transform="translate(588,527)" d="m0 0 1 3-2 6h-2l-2 9-2 3-2 10 1 4 3 1 2 3 5 1-2 2-6-2-1-3-3-1-2-4v-7l2-8h2l1-7 5-9z" fill="#969696"/>
<path transform="translate(986,1541)" d="m0 0h21v4l-10 2-3 2h-9z" fill="#959595"/>
<path transform="translate(1040,491)" d="m0 0 8 1 5 2 1 3-8-2-6 4-4 8h-3l-1-12z" fill="#464646"/>
<path transform="translate(670,1446)" d="m0 0h2l1 7-1 26h-5v-15l2-13z" fill="#414141"/>
<path transform="translate(949,1190)" d="m0 0 3 2-2 5-6 11-2 10-3 3-1-1v-9l2-9 5-3v-5z" fill="#9D9D9D"/>
<path transform="translate(978,1551)" d="m0 0h29v3l-11 1h-26v-3z" fill="#C9C9C9"/>
<path transform="translate(643,1155)" d="m0 0h1l1 18-1 10-4 2-2-4 1-15 3-10z" fill="#C1C1C1"/>
<path transform="translate(673,584)" d="m0 0h9l-1 2-15 6-5 3h-8l4-4 2-1-4-2 5-2z" fill="#484848"/>
<path transform="translate(649,1336)" d="m0 0 3 1-3 7v2 8l-1 3v9l-1 4h-2v-2h-2l-1-6 2-12 2-7h2z" fill="#979797"/>
<path transform="translate(706,696)" d="m0 0m-60 0 17 1 11 1 6-1h26v2l-4 1h-33l-17-2-6-1z" fill="#B2B2B2"/>
<path transform="translate(654,1345)" d="m0 0 3 1v16l-4 6-2 8h-2l-1-4 3-12 2-13z" fill="#B5B5B5"/>
<path transform="translate(598,582)" d="m0 0 2 1-8 7-4 10-1 17-2 1-2-6 1-13 4-10 8-6z" fill="#9A9A9A"/>
<path transform="translate(1007,1541)" d="m0 0h1v8l-1 2-31 1-3-2 21-2 1-2 12-1z" fill="#414141"/>
<path transform="translate(919,1401)" d="m0 0 1 3h2v9l-2 3-2 7h-3v-21l1 2h2z" fill="#404040"/>
<path transform="translate(769,353)" d="m0 0 3 3v2h3l2-4h3l2 6 2 1-1 4h-2v2l-7-2-3-3-1-3-2-1z" fill="#3E3E3E"/>
<path transform="translate(920,1356)" d="m0 0 5 1-1 5 3 1h-3v12l-1 3 1 1v8h-3l-1-8v-7l-2-1h4l-1-5-1 2h-2l1-8h2z" fill="#414141"/>
<path transform="translate(1072,556)" d="m0 0 1 3-6 11-5 3-2-1 1 8-2-1v-5l-3-1 1-3h2l2-4 4-2 3-3 1-3z" fill="#050505"/>
<path transform="translate(949,1541)" d="m0 0h6l2 2 4 1v4l-5 1-6 3h-9l1-2h5l1-4-1-4z" fill="#969696"/>
<path transform="translate(844,1039)" d="m0 0 5 1 4 2 1 2 11 1 2 4-6 4-1 3 5 1 1 7-3-3v-2l-5-2 1-5 2-4-3-1-7-1-3-4-4-2z" fill="#414141"/>
<path transform="translate(610,585)" d="m0 0h9l1 3 5 1 6 4 8 2-1 3h-4l-1-1h-6v-3l-5-3h-5l-4-3-1 2z" fill="#959595"/>
<path transform="translate(606,919)" d="m0 0 4 1v10l4 26 4 25v5l-2-4-4-23-5-34z" fill="#414141"/>
<path transform="translate(1049,514)" d="m0 0 5 1v3l-7 5-5 9-4-1 2-5 1-4-1-3h4l5-2z" fill="#535353"/>
<path transform="translate(913,1506)" d="m0 0h1l1 19 1 2-1 2h2v15l-1 3h-3z" fill="#060606"/>
<path transform="translate(928,1480)" d="m0 0 3 2v8l-5 8-3-4 1-7-2-1h2l1-5z" fill="#3F3F3F"/>
<path transform="translate(914,1434)" d="m0 0h2l1 16 1-2h2l-1 4h-2l-1 8-1 4h-2v-28z" fill="#A3A3A3"/>
<path transform="translate(879,600)" d="m0 0h2v2l3 1 4 4 2 6-3 1-3-3-9-3 2-4z" fill="#3E3E3E"/>
<path transform="translate(773,1433)" d="m0 0 2 2v36l1 10 2 4-1 5 1 5-3-3-2-7z" fill="#C9C9C9"/>
<path transform="translate(458,939)" d="m0 0 4 1 5 6 3 1-3 7-5-2-4-7-1-5z" fill="#414141"/>
<path transform="translate(671,577)" d="m0 0 17 1 9 2v2l-13 2h-11v-1l5-1v-2l-7-2z" fill="#979797"/>
<path transform="translate(658,975)" d="m0 0h4v3l7 2 4 1v2h-2l4 5h-4l-3-2-5 3-3-3 4-6-3 1z" fill="#979797"/>
<path transform="translate(688,987)" d="m0 0 5 2v2l6 1v2l10-1 1 3 4 2 2 3-11-2-4-3-6-2-4-2v-2l-3-1z" fill="#414141"/>
<path transform="translate(635,1072)" d="m0 0h9v1l-6 2-6 4-4 8-2 6-2-2v-7l4-7z" fill="#B0B0B0"/>
<path transform="translate(937,1247)" d="m0 0 3 1 1 10-6 7-2 3h-2l1-6 3-7 1-7z" fill="#B6B6B6"/>
<path transform="translate(661,1457)" d="m0 0 3 1 1 13 1 3 2-1v5l2 2-3 4h-2l-3 1 1-26h-2l-1 10-2 1 2-12z" fill="#414141"/>
<path transform="translate(783,753)" d="m0 0h5l5 2 8-2 4 3-5 2 2 2-14-1v-2l-6-1z" fill="#959595"/>
<path transform="translate(666,1481)" d="m0 0 1 3-5 5-2 7-5 5 1-17 1 2 8-3z" fill="#9C9C9C"/>
<path transform="translate(990,585)" d="m0 0h2l1 4v13l2 1h-5l-2-6-1-9z" fill="#CACACA"/>
<path transform="translate(709,320)" d="m0 0h3v2l4 1h3l2 2v3l-3 2 3 4-4 1v-2h-2l-5-9z" fill="#404040"/>
<path transform="translate(511,650)" d="m0 0h1l3 22 3 12 7 15 2 5-2 1-5-10-2-3-3-9-3-13z" fill="#414141"/>
<path transform="translate(600,596)" d="m0 0 10 1 1 2 3-2 2 2-1 2h6v2h-7l-12-2-2 2z" fill="#949494"/>
<path transform="translate(1025,586)" d="m0 0 3 1v14l-2 10v3h-2v-20z" fill="#969696"/>
<path transform="translate(942,1574)" d="m0 0 10 1h14v2l-5 2h-16l-4-4z" fill="#414141"/>
<path transform="translate(434,924)" d="m0 0h2l2 6-3 6-2 1v3l-4-1-1-4 3-1-1-4v-3z" fill="#414141"/>
<path transform="translate(644,1297)" d="m0 0 1 4v3l-2 9h-2l-2 4-1-7 1-9z" fill="#BFBFBF"/>
<path transform="translate(945,1082)" d="m0 0 2 2 1 13 5-2 1 3h-3l-1 2h-2v4l2 1-1 3-4-1z" fill="#969696"/>
<path transform="translate(767,1556)" d="m0 0h4l2 7 11 1 3 1 16 1v1h-19l-12-1v-2l-4-1z" fill="#767676"/>
<path transform="translate(936,1282)" d="m0 0h2l-1 10-3 3-5 2-3 5h-2l1-6 5-4h2l1-6z" fill="#414141"/>
<path transform="translate(644,1216)" d="m0 0h1l1 12 1-8h1v13l2 3-2 7-6 1 2-2h3v-4l-3 1-1-3z" fill="#414141"/>
<path transform="translate(711,1042)" d="m0 0 7 1 2 4-6 1v2l-5-1-6-2v-2z" fill="#CACACA"/>
<path transform="translate(635,1165)" d="m0 0 2 1v19h-4l-1-2 1-15z" fill="#9E9E9E"/>
<path transform="translate(760,649)" d="m0 0 2 2-1 5-9 20-4 1 2-5 7-15z" fill="#3F3F3F"/>
<path transform="translate(947,1137)" d="m0 0h1v21l-3 7h-2l1-14z" fill="#9D9D9D"/>
<path transform="translate(644,1306)" d="m0 0 4 2v7l-3 10h-4v-6l3-2-1-8z" fill="#3F3F3F"/>
<path transform="translate(930,1303)" d="m0 0h2v14l-1 3-4-1v-9l2-6z" fill="#C1C1C1"/>
<path transform="translate(937,1224)" d="m0 0 4 2v2l2 1-1 10-2 5-4-1 1-5h2v-4-3l-2 1-1-7z" fill="#414141"/>
<path transform="translate(414,963)" d="m0 0h7l-2 6-3 4-5 1-2-2z" fill="#404040"/>
<path transform="translate(512,656)" d="m0 0h2l3 17 3 12 3 6 3 7-1 3-6-12-4-13-3-19z" fill="#969696"/>
<path transform="translate(637,1070)" d="m0 0 12 2 8 7 5 11-1 3-7-14-6-4h-10l1-2-4-2z" fill="#414141"/>
<path transform="translate(832,1558)" d="m0 0h10v6l-5 1h-5l-1-6z" fill="#050505"/>
<path transform="translate(620,924)" d="m0 0h5v5l2 2h3l1 3v3 2h-2l-3-4 1-2-5-1-2-5-2-1z" fill="#393939"/>
<path transform="translate(636,1121)" d="m0 0 3 1-1 5h2v6l-4 4-2-1 1-13z" fill="#BEBEBE"/>
<path transform="translate(642,1084)" d="m0 0 3 1v3h-2l-1 5-2 5h-5l2-4v-7l3-2h2z" fill="#6B6B6B"/>
<path transform="translate(669,832)" d="m0 0 1 2 4-2-1 7-3 3-1 5-2-2-4 4 1-5 3-6z" fill="#9E9E9E"/>
<path transform="translate(653,1420)" d="m0 0 3 1v12l-3 5-2 1 1-15z" fill="#C2C2C2"/>
<path transform="translate(938,1296)" d="m0 0 4 1-1 8-3 3h-3v-7z" fill="#5E5E5E"/>
<path transform="translate(944,1555)" d="m0 0h20l4 3h-23l-2-2z" fill="#424242"/>
<path transform="translate(653,1277)" d="m0 0 1 3h2v8l-1 7-4 2v-14z" fill="#A6A6A6"/>
<path transform="translate(639,1240)" d="m0 0h2v10l-4 4-2 7h-1l1-13 1-4h4z" fill="#C2C2C2"/>
<path transform="translate(652,589)" d="m0 0h10l-3 2-4 1-2-1-2 4-4 2-1-1-2 2h-2l1-4 6-4z" fill="#1F1F1F"/>
<path transform="translate(601,583)" d="m0 0h3l2 4v3l-7 1-6 1 2-4z" fill="#050505"/>
<path transform="translate(981,1551)" d="m0 0h26v3l-19 1v-2l-7-1z" fill="#9E9E9E"/>
<path transform="translate(921,1424)" d="m0 0h3v11l-2 7h-2v-16z" fill="#969696"/>
<path transform="translate(1060,519)" d="m0 0 5 2 3 2v4 4l-2 2h-3l-1-9-2-2z" fill="#474747"/>
<path transform="translate(742,389)" d="m0 0 18 4v2l-7 1-10-3-4 1v-2h3z" fill="#050505"/>
<path transform="translate(651,1105)" d="m0 0h1v10l-4 7-3 1 1-7 4-10z" fill="#BEBEBE"/>
<path transform="translate(845,1041)" d="m0 0 4 1 2 4h9l2 3-3 4-2 4-3-4 3-3-6-2-4-5z" fill="#050505"/>
<path transform="translate(967,571)" d="m0 0h14l4 2-4 2h-12v-2l-3-1z" fill="#9C9C9C"/>
<path transform="translate(662,1412)" d="m0 0h2v13l-4 4-1-3 1-11z" fill="#A4A4A4"/>
<path transform="translate(606,682)" d="m0 0 4 1 10 6 18 6v1h-6l-16-6-10-7z" fill="#414141"/>
<path transform="translate(664,1533)" d="m0 0 4 4v11l-1 2h-3z" fill="#B8B8B8"/>
<path transform="translate(812,1556)" d="m0 0 2 1 2 7 1 8v15h-1v-11h-2l1-6h-2z" fill="#414141"/>
<path transform="translate(780,925)" d="m0 0h1v8l-1 6-4 2-1-7 1-7h1l1 8 1-9zm-6 14m-2 1h2l1 5-3-2z" fill="#101010"/>
<path transform="translate(879,852)" d="m0 0h2l1 5-8 2-1 2-1-3-3-1v-2l7-2v2z" fill="#0B0B0B"/>
<path transform="translate(913,1548)" d="m0 0h3v2h2v10l1 3-4-1v-4l-2 3z" fill="#969696"/>
<path transform="translate(800,1524)" d="m0 0 10 3v1h-9l2 2-6 1-8-1v-2l6-1-1-2z" fill="#999"/>
<path transform="translate(744,1463)" d="m0 0 2 4 2 7v6l-6-4-1-8 3 3z" fill="#494949"/>
<path transform="translate(689,1065)" d="m0 0 4 1 15 8 8 5-3 1-16-9-8-5z" fill="#969696"/>
<path transform="translate(721,609)" d="m0 0h3l1 3 2 2-3 1-4-1v2l-3-1-4 1-3-2h4v-2z" fill="#050505"/>
<path transform="translate(450,1018)" d="m0 0 2 1-1 3-6 2h-12l3-2z" fill="#414141"/>
<path transform="translate(941,1553)" d="m0 0h25v2l-25 1z" fill="#070707"/>
<path transform="translate(451,945)" d="m0 0 4 4v2h2v2l3 1 1 6h-4l-4-8-1-3-2-1z" fill="#3F3F3F"/>
<path transform="translate(517,551)" d="m0 0 3 1-2 6-2 11h-3v-7z" fill="#A2A2A2"/>
<path transform="translate(938,1566)" d="m0 0 2 1v4h10l2 4-4 1-6-1h-3z" fill="#929292"/>
<path transform="translate(641,1255)" d="m0 0h2l-1 8-4 11-2-4 2-9z" fill="#414141"/>
<path transform="translate(649,1217)" d="m0 0 2 1v16l-2 1-2-2 1-15z" fill="#B6B6B6"/>
<path transform="translate(636,1112)" d="m0 0h1v6l-1 2-1 16 3 1-1 4h-2v3h-2v-14l1-11z" fill="#595959"/>
<path transform="translate(799,872)" d="m0 0h2l-2 14-4 10-2-1 1-5 3-10 1-7z" fill="#414141"/>
<path transform="translate(598,582)" d="m0 0 2 1-8 7-5 9h-1v-6l4-6z" fill="#BABABA"/>
<path transform="translate(525,560)" d="m0 0 4 2 5 3v5l-2 2h-3v-5l-4-3z" fill="#050505"/>
<path transform="translate(586,780)" d="m0 0 2 1-4 7-1 9-4-2 3-10v-4z" fill="#414141"/>
<path transform="translate(638,764)" d="m0 0 1 4-4 6-5 2-2-2 3-1-1-3 2-2v2l3-2 1-3z" fill="#969696"/>
<path transform="translate(564,592)" d="m0 0 4 3v2h-2l1 4-1 7 1 2h-2l-1 3h-1v-9z" fill="#9A9A9A"/>
<path transform="translate(781,933)" d="m0 0h1v11l-2 4-2-5v8l-2-1v-6l2-5h2v-5z" fill="#414141"/>
<path transform="translate(881,1560)" d="m0 0 1 2 3-1h8l4 2-7 2h-9z" fill="#C5C5C5"/>
<path transform="translate(652,1263)" d="m0 0 3 3 1 4v10h-2l-2-6z" fill="#4A4A4A"/>
<path transform="translate(950,1238)" d="m0 0 2 1-1 6-4 4v-6l-2-1-1 3-1-2 2-4z" fill="#414141"/>
<path transform="translate(665,1047)" d="m0 0 4 2 12 9 7 4 1 3-4-2-16-11-4-3z" fill="#969696"/>
<path transform="translate(1062,685)" d="m0 0 3 1v8l-2-2-7-1-1-2-4-2 2-1 6 2z" fill="#949494"/>
<path transform="translate(513,569)" d="m0 0h1l2 6 3 3-1 5-4-1-2-6 1-2h-2l1-4z" fill="#8E8E8E"/>
<path transform="translate(683,355)" d="m0 0 4 1 2 4-1 2-6 1-3-3v-2h3z" fill="#050505"/>
<path transform="translate(706,382)" d="m0 0 12 3 1 3h-11l-2-3z" fill="#060606"/>
<path transform="translate(924,1363)" d="m0 0 4 1v9l-3 3-1-1z" fill="#BDBDBD"/>
<path transform="translate(941,1206)" d="m0 0 2 3-1 9-3 3-1-1v-8z" fill="#A0A0A0"/>
<path transform="translate(533,582)" d="m0 0 11 2-2 3h-10l-5-1 1-2h5z" fill="#A2A2A2"/>
<path transform="translate(1011,484)" d="m0 0h2l8 16-4-1-6-11z" fill="#414141"/>
<path transform="translate(623,1085)" d="m0 0h1l1 6 3-4v11l3 5-4-2-5-10z" fill="#414141"/>
<path transform="translate(533,574)" d="m0 0 10 3-1 3-11-1z" fill="#A5A5A5"/>
<path transform="translate(660,1342)" d="m0 0 3 2v10h-3l-1-7-2 2 1-5z" fill="#575757"/>
<path transform="translate(694 1e3)" d="m0 0 6 1 9 4v2h-6v-2l-7-1-3-3z" fill="#414141"/>
<path transform="translate(668,595)" d="m0 0 2 1-5 6 3 5-1 2h-5l3-4h-2v-2l-4-1 8-6z" fill="#9C9C9C"/>
<path transform="translate(657,1487)" d="m0 0 3 1v8l-5 5v-7z" fill="#B6B6B6"/>
<path transform="translate(624,775)" d="m0 0h6l-2 6-3 4-2-2v-6z" fill="#B1B1B1"/>
<path transform="translate(953,1592)" d="m0 0h8l1 3-6 2h-4z" fill="#B9B9B9"/>
<path transform="translate(793,914)" d="m0 0h2l1 6-1 9-2 4-1-5 1-7-1-3z" fill="#414141"/>
<path transform="translate(543,712)" d="m0 0h2l4 6v4l3 1 1 5-5 2 2-4-3-4-3-7z" fill="#969696"/>
<path transform="translate(1044,593)" d="m0 0 6 1-1 8h-3l-2-1z" fill="#414141"/>
<path transform="translate(837,1524)" d="m0 0 4 1v4l-8-1-5 1v-3z" fill="#969696"/>
<path transform="translate(963,1123)" d="m0 0h1v9l-2 4h-2v-8z" fill="#414141"/>
<path transform="translate(488,940)" d="m0 0 5 1v6l-5 1v-2l-2-1z" fill="#414141"/>
<path transform="translate(914,1434)" d="m0 0h2v16l-1-4h-2v-10z" fill="#A9A9A9"/>
<path transform="translate(925,1313)" d="m0 0 1 4-2 8-2 9h-1l1-15z" fill="#414141"/>
<path transform="translate(709,928)" d="m0 0 1 3 1 5-3 7-2-3-1-2v-7l2 2z" fill="#414141"/>
<path transform="translate(669,1464)" d="m0 0 2 1v13l-4 1z" fill="#969696"/>
<path transform="translate(622,590)" d="m0 0 1 2 4 1 2 3-5 1-7-5v-1z" fill="#414141"/>
<path transform="translate(808,1570)" d="m0 0 4 1-1 5-1 4-4-1 1-8z" fill="#414141"/>
<path transform="translate(773,1480)" d="m0 0 3 1 2 4-1 5 1 5-3-3-2-7z" fill="#BEBEBE"/>
<path transform="translate(683,1007)" d="m0 0 10 2h3v3h-9l-2-1v-3z" fill="#C7C7C7"/>
<path transform="translate(918,1372)" d="m0 0h2l1 7-2 4-1 6h-1v-15z" fill="#969696"/>
<path transform="translate(936,1353)" d="m0 0 2 1-1 8-3 1-2-1 1-5z" fill="#565656"/>
<path transform="translate(648,1325)" d="m0 0h3l-3 10 3 1h-2l-1 7-2-1 2-6h-2l1-7z" fill="#414141"/>
<path transform="translate(643,1155)" d="m0 0h1v10l-2-1v4h-2l-1 4 1-9 2-7z" fill="#979797"/>
<path transform="translate(473,949)" d="m0 0 5 1 3 5-1 2-4-1z" fill="#414141"/>
<path transform="translate(716,581)" d="m0 0 7 1 1 3-5 1-9-3v-1z" fill="#606060"/>
<path transform="translate(970,1550)" d="m0 0 6 1v1l-6 1 2 3-3 1h-7l5-4z" fill="#9D9D9D"/>
<path transform="translate(921,1487)" d="m0 0h3v7l1 4-4 1z" fill="#B7B7B7"/>
<path transform="translate(926,1313)" d="m0 0h1l1 6 2 2h-2l-1 4-3 1v-7z" fill="#9A9A9A"/>
<path transform="translate(636,1186)" d="m0 0 4 2-2 4-3 1-3-1 1-4z" fill="#B3B3B3"/>
<path transform="translate(847,897)" d="m0 0h2l2 4-1 2h2v3h-2v-2l-3 1-2-6z" fill="#3B3B3B"/>
<path transform="translate(1067,523)" d="m0 0 6 4 3 4-1 3-4-4h-2l-3-4z" fill="#B0B0B0"/>
<path transform="translate(652,1368)" d="m0 0 1 3h2v6l-1 2h-3l-1-3z" fill="#3F3F3F"/>
<path transform="translate(769,799)" d="m0 0 7 1 1 3-2 4-5-5z" fill="#050505"/>
<path transform="translate(788,752)" d="m0 0h11v2l-6 2-5-2z" fill="#C0C0C0"/>
<path transform="translate(1056,694)" d="m0 0 4 1 5 5 1-3h1v5l-5 2-3-6v-2l-3-1z" fill="#969696"/>
<path transform="translate(645,1317)" d="m0 0h1v6l-1 2h-4v-6z" fill="#3D3D3D"/>
<path transform="translate(676,610)" d="m0 0 4 1 3 6h-3v-2l-6 3 2-5z" fill="#969696"/>
<path transform="translate(630,393)" d="m0 0 9 2 2 4-11-3z" fill="#414141"/>
<path transform="translate(731,328)" d="m0 0h6v2l-2 1 1 6-2 1-3-9z" fill="#414141"/>
<path transform="translate(982,1597)" d="m0 0 17 2v1h-18z" fill="#686868"/>
<path transform="translate(945,1521)" d="m0 0h5l-1 2h-2l1 3-6 4 1-7z" fill="#979797"/>
<path transform="translate(890,853)" d="m0 0h2l2 3v4h-7v-2h2z" fill="#414141"/>
<path transform="translate(659,1346)" d="m0 0h1v8l-4 4v-8z" fill="#2A2A2A"/>
<path transform="translate(954,1129)" d="m0 0 2 1v8l-1 6-3-2z" fill="#969696"/>
<path transform="translate(721,1406)" d="m0 0h2l2 7h-6z" fill="#969696"/>
<path transform="translate(926,1374)" d="m0 0 1 4-2 8-2-2v-5l-1-2 1-2z" fill="#969696"/>
<path transform="translate(650,1363)" d="m0 0 2 3-1 10h-2l-1-4z" fill="#B7B7B7"/>
<path transform="translate(768,885)" d="m0 0 5 1v2l-3 3 4-1-3 3-3-1z" fill="#050505"/>
<path transform="translate(1058,581)" d="m0 0h2l3 6v5h-2l-3-7z" fill="#aaa"/>
<path transform="translate(771,1569)" d="m0 0 8 1 1 2-7 1-2 4z" fill="#767676"/>
<path transform="translate(833,739)" d="m0 0 4 2-1 4h-5v-3l2-1z" fill="#050505"/>
<path transform="translate(1052,500)" d="m0 0v3l-6 11-2 1 1-5z" fill="#414141"/>
<path transform="translate(687,364)" d="m0 0 9 3-4 2-3-1h-3z" fill="#050505"/>
<path transform="translate(650,1437)" d="m0 0 2 4-2 8h-1l-1-11z" fill="#9A9A9A"/>
<path transform="translate(945,1242)" d="m0 0 3 1-2 8-2 1v-8z" fill="#969696"/>
<path transform="translate(157,1150)" d="m0 0 2 3-3 4-5 1-1-2 4-3z" fill="#414141"/>
<path transform="translate(759,901)" d="m0 0 2 4-1 5-5-1 2-5z" fill="#CACACA"/>
<path transform="translate(753,779)" d="m0 0 7 5-4 2-4-2z" fill="#050505"/>
</svg>
